<?xml version="1.0" encoding="utf-8"?>
<!-- Generator: Adobe Illustrator 16.0.0, SVG Export Plug-In . SVG Version: 6.00 Build 0)  -->
<!DOCTYPE svg PUBLIC "-//W3C//DTD SVG 1.1//EN" "http://www.w3.org/Graphics/SVG/1.1/DTD/svg11.dtd">
<svg version="1.1" id="Layer_1" xmlns="http://www.w3.org/2000/svg" xmlns:xlink="http://www.w3.org/1999/xlink" x="0px" y="0px"
	 width="70px" height="70px" viewBox="0 0 70 70" enable-background="new 0 0 70 70" xml:space="preserve">
<g>
	<defs>
		<filter id="Adobe_OpacityMaskFilter" filterUnits="userSpaceOnUse" x="0" y="0" width="70" height="70">
			<feColorMatrix  type="matrix" values="1 0 0 0 0  0 1 0 0 0  0 0 1 0 0  0 0 0 1 0"/>
		</filter>
	</defs>
	<mask maskUnits="userSpaceOnUse" x="0" y="0" width="70" height="70" id="icon-b">
		<g filter="url(#Adobe_OpacityMaskFilter)">
			<path id="icon-a" fill="#FFFFFF" d="M4,0h61c4,0,5,1,5,5v60c0,4-1,5-5,5H4c-3,0-4-1-4-5V5C0,1,1,0,4,0z"/>
		</g>
	</mask>
	<g mask="url(#icon-b)">
		<path fill="#9B108E" d="M0,0h70v70H0V0z"/>
		<path fill="#FFFFFF" fill-opacity="0.383" d="M4,1h61c2.667,0,4.333,0.667,5,2V0H0v3C0.667,1.667,2,1,4,1z"/>
		<path opacity="0.165" enable-background="new    " d="M26.375,11.5l9.25,1.125L54,18.25l4,6.11v19.558L33.423,69H4.006
			C2.003,69,0,68.854,0,64.911V38.064l12.348-14L26.375,11.5z"/>
		<path fill-opacity="0.383" d="M4,69h61c2.667,0,4.333-1,5-3v4H0v-4C0.667,68,2,69,4,69z"/>
		<g display="none">
			<g id="Layer_1_1_" display="inline">
				<path fill="#FFFFFF" d="M35,8.281C20.246,8.281,8.281,20.246,8.281,35S20.246,61.719,35,61.719S61.719,49.754,61.719,35
					S49.754,8.281,35,8.281z M35,19.297c4.301,0,7.793,3.492,7.793,7.793c0,4.301-3.492,7.793-7.793,7.793s-7.793-3.492-7.793-7.793
					C27.207,22.789,30.699,19.297,35,19.297z M47.598,46.156c0,2.496-2.039,4.535-4.535,4.535H26.938
					c-2.496,0-4.535-2.039-4.535-4.535v-9.609c0-2.496,2.039-4.535,4.535-4.535h0.375c1.582,2.578,4.43,4.3,7.676,4.3
					s6.094-1.729,7.676-4.3h0.375c2.496,0,4.535,2.039,4.535,4.535v9.609H47.598z"/>
			</g>
			<g id="Layer_2" display="inline">
				<g>
					<path fill="#FFFFFF" d="M47.984,8.398H15.289c-3.223,0-5.859,2.637-5.859,5.859v41.484c0,3.223,2.637,5.858,5.859,5.858h32.695
						c3.223,0,5.854-2.646,5.854-5.858V14.258C53.844,11.035,51.207,8.398,47.984,8.398z M31.637,19.297
						c4.3,0,7.792,3.492,7.792,7.793c0,4.301-3.492,7.793-7.792,7.793c-4.301,0-7.793-3.492-7.793-7.793
						C23.844,22.789,27.324,19.297,31.637,19.297z M44.234,46.156c0,2.496-2.039,4.535-4.535,4.535H23.574
						c-2.496,0-4.535-2.039-4.535-4.535v-9.609c0-2.496,2.039-4.535,4.535-4.535h0.375c1.582,2.578,4.43,4.3,7.676,4.3
						s6.094-1.729,7.676-4.3h0.375c2.496,0,4.535,2.039,4.535,4.535v9.609H44.234z"/>
					<g>
						<g>
							<g>
								<g>
									<rect id="SVGID_2_" x="53.375" y="18.242" fill="#FFFFFF" width="7.207" height="32.227"/>
								</g>
								<g>
									<g>
										<g>
											<g>
												<g>
													<g>
														<g>
															<g>
																<g>
																	<g>
																		<g>
																			<defs>
																				<rect id="SVGID_1_" x="53.375" y="18.242" width="7.207" height="32.227"/>
																			</defs>
																			<clipPath id="SVGID_3_">
																				<use xlink:href="#SVGID_1_"  overflow="visible"/>
																			</clipPath>
																			<g clip-path="url(#SVGID_3_)">
																				<path fill="#FFFFFF" d="M59.41,19.063h-8.438c-0.646,0-1.183,0.527-1.183,1.172v5.391
																					c0,0.645,0.522,1.172,1.183,1.172h8.438c0.645,0,1.172-0.527,1.172-1.172v-5.391
																					C60.582,19.59,60.055,19.063,59.41,19.063z"/>
																				<path fill="#FFFFFF" d="M56.188,42.266H47.75c-0.645,0-1.172,0.527-1.172,1.172v5.396
																					c0,0.646,0.527,1.172,1.172,1.172h8.438c0.646,0,1.172-0.521,1.172-1.172v-5.396
																					C57.359,42.793,56.832,42.266,56.188,42.266z"/>
																				<path fill="#FFFFFF" d="M58.18,30.664h-8.438c-0.645,0-1.172,0.527-1.172,1.172v5.391
																					c0,0.646,0.527,1.172,1.172,1.172h8.438c0.646,0,1.172-0.521,1.172-1.172v-5.391
																					C59.352,31.191,58.824,30.664,58.18,30.664z"/>
																			</g>
																		</g>
																	</g>
																</g>
															</g>
														</g>
													</g>
												</g>
											</g>
										</g>
									</g>
								</g>
							</g>
						</g>
					</g>
				</g>
			</g>
			<g id="Layer_3" display="inline">
				<g>
					<path fill="#FFFFFF" d="M60.664,17.539h-2.402c-0.375,2.578-2.59,4.57-5.273,4.57c-2.682,0-4.899-1.992-5.271-4.57h-25.43
						c-0.375,2.578-2.59,4.57-5.273,4.57s-4.91-1.992-5.273-4.57H9.336c-0.645,0-1.172,0.527-1.172,1.172v37.734
						c0,0.645,0.527,1.172,1.172,1.172h51.328c0.645,0,1.172-0.527,1.172-1.172V18.711C61.836,18.066,61.309,17.539,60.664,17.539z
						 M23.281,25.508c3.305,0,5.988,2.684,5.988,5.988c0,3.304-2.684,5.988-5.988,5.988c-3.304,0-5.988-2.688-5.988-5.988
						C17.293,28.192,19.977,25.508,23.281,25.508z M32.961,46.156c0,1.922-1.57,3.492-3.492,3.492H17.082
						c-1.922,0-3.492-1.57-3.492-3.492v-7.383c0-1.922,1.57-3.492,3.492-3.492h0.293c1.219,1.979,3.398,3.305,5.906,3.305
						c2.508,0,4.688-1.324,5.906-3.305h0.293c1.922,0,3.492,1.57,3.492,3.492v7.383H32.961z M56.328,45.781
						c0,0.645-0.527,1.172-1.172,1.172H36.992c-0.645,0-1.172-0.527-1.172-1.172v-0.82c0-0.645,0.527-1.172,1.172-1.172h18.164
						c0.645,0,1.172,0.527,1.172,1.172V45.781z M56.328,38.164c0,0.645-0.527,1.172-1.172,1.172H36.992
						c-0.645,0-1.172-0.527-1.172-1.172v-0.82c0-0.645,0.527-1.172,1.172-1.172h18.164c0.645,0,1.172,0.527,1.172,1.172V38.164z
						 M56.328,30.547c0,0.645-0.527,1.172-1.172,1.172H36.992c-0.645,0-1.172-0.527-1.172-1.172v-0.82
						c0-0.645,0.527-1.172,1.172-1.172h18.164c0.645,0,1.172,0.527,1.172,1.172V30.547z"/>
					<path fill="#FFFFFF" d="M17.012,12.383c-2.367,0-4.277,1.91-4.277,4.277c0,2.367,1.91,4.277,4.277,4.277
						c2.367,0,4.277-1.91,4.277-4.277C21.289,14.293,19.379,12.383,17.012,12.383z M17.012,19.414c-1.523,0-2.754-1.23-2.754-2.754
						c0-1.524,1.23-2.754,2.754-2.754c1.524,0,2.754,1.229,2.754,2.754C19.766,18.184,18.535,19.414,17.012,19.414z"/>
					<path fill="#FFFFFF" d="M53.105,12.383c-2.367,0-4.277,1.91-4.277,4.277c0,2.367,1.91,4.277,4.277,4.277
						s4.271-1.91,4.271-4.277C57.382,14.293,55.473,12.383,53.105,12.383z M53.105,19.414c-1.523,0-2.754-1.23-2.754-2.754
						c0-1.524,1.229-2.754,2.754-2.754c1.521,0,2.754,1.229,2.754,2.754C55.859,18.184,54.629,19.414,53.105,19.414z"/>
				</g>
			</g>
			<g id="Layer_4" display="inline">
				<g>
					<path fill="#FFFFFF" d="M46.883,26.41h-7.5c-0.48,0-0.879,0.398-0.879,0.879l0,0c0,0.48,0.398,0.879,0.879,0.879h7.5
						c0.48,0,0.879-0.398,0.879-0.879l0,0C47.762,26.797,47.363,26.41,46.883,26.41z"/>
					<path fill="#FFFFFF" d="M46.883,23.199h-7.5c-0.48,0-0.879,0.398-0.879,0.879s0.398,0.879,0.879,0.879h7.5
						c0.48,0,0.879-0.398,0.879-0.879S47.363,23.199,46.883,23.199z"/>
					<path fill="#FFFFFF" d="M35,8.281C20.246,8.281,8.281,20.246,8.281,35S20.246,61.719,35,61.719S61.719,49.754,61.719,35
						S49.754,8.281,35,8.281z M28.086,27.734c3.34,0,6.047,2.707,6.047,6.047c0,3.34-2.707,6.047-6.047,6.047
						s-6.047-2.707-6.047-6.047C22.039,30.441,24.746,27.734,28.086,27.734z M37.871,48.582c0,1.934-1.582,3.527-3.527,3.527H21.828
						c-1.934,0-3.527-1.582-3.527-3.527v-7.465c0-1.934,1.582-3.527,3.527-3.527h0.293c1.23,2.004,3.434,3.34,5.965,3.34
						c2.531,0,4.734-1.336,5.965-3.34h0.293c1.933,0,3.527,1.582,3.527,3.527V48.582z M52.508,26.527c0,2.098-1.488,3.82-3.305,3.82
						h-7.277l-7.02,2.777l2.098-2.789h0.047c-1.816,0-3.305-1.723-3.305-3.82v-4.84c0-2.098,1.488-3.82,3.305-3.82h12.152
						c1.816,0,3.305,1.723,3.305,3.82V26.527z"/>
					<path fill="#FFFFFF" d="M46.883,20h-7.5c-0.48,0-0.879,0.398-0.879,0.879s0.398,0.879,0.879,0.879h7.5
						c0.48,0,0.879-0.398,0.879-0.879S47.363,20,46.883,20z"/>
				</g>
			</g>
			<g id="Layer_5" display="inline">
				<path fill="#FFFFFF" d="M34.883,8.164c-14.754,0-26.719,11.965-26.719,26.719s11.965,26.719,26.719,26.719
					s26.719-11.965,26.719-26.719S49.637,8.164,34.883,8.164z M29.445,22.203c3.984,0,7.219,3.234,7.219,7.219
					c0,3.985-3.234,7.219-7.219,7.219c-3.985,0-7.219-3.229-7.219-7.219C22.226,25.437,25.461,22.203,29.445,22.203z M41.105,47.082
					c0,2.309-1.896,4.207-4.207,4.207H21.98c-2.309,0-4.207-1.887-4.207-4.207v-8.895c0-2.313,1.887-4.208,4.207-4.208h0.352
					c1.465,2.391,4.102,3.984,7.113,3.984c3.011,0,5.648-1.594,7.114-3.984h0.354c2.312,0,4.207,1.887,4.207,4.208v8.895H41.105z
					 M49.344,29.129v5.988h-2.801v-5.988h-5.988v-2.801h5.988v-5.977h2.801v5.988h5.988v2.801h-5.988V29.129z"/>
			</g>
			<g id="Layer_6" display="inline">
				<path fill="#FFFFFF" d="M35,8.281C20.246,8.281,8.281,20.246,8.281,35S20.246,61.719,35,61.719S61.719,49.754,61.719,35
					S49.754,8.281,35,8.281z M29.563,22.32c3.984,0,7.219,3.234,7.219,7.219s-3.234,7.219-7.219,7.219s-7.219-3.234-7.219-7.219
					S25.578,22.32,29.563,22.32z M41.223,47.199c0,2.309-1.887,4.207-4.207,4.207H22.098c-2.309,0-4.207-1.887-4.207-4.207v-8.895
					c0-2.313,1.887-4.208,4.207-4.208h0.352c1.465,2.39,4.102,3.984,7.113,3.984s5.648-1.596,7.113-3.984h0.352
					c2.313,0,4.207,1.886,4.207,4.208v8.895H41.223z M40.742,29.258v-2.813h14.297v2.813H40.742z"/>
			</g>
			<g id="Layer_7" display="inline">
				<path fill="#FFFFFF" d="M35,8.281C20.246,8.281,8.281,20.246,8.281,35S20.246,61.719,35,61.719S61.719,49.754,61.719,35
					S49.754,8.281,35,8.281z M29.563,22.32c3.984,0,7.219,3.234,7.219,7.219s-3.234,7.219-7.219,7.219s-7.219-3.234-7.219-7.219
					S25.578,22.32,29.563,22.32z M41.223,47.199c0,2.309-1.887,4.207-4.207,4.207H22.098c-2.309,0-4.207-1.887-4.207-4.207v-8.895
					c0-2.313,1.887-4.208,4.207-4.208h0.352c1.465,2.39,4.102,3.984,7.113,3.984s5.648-1.596,7.113-3.984h0.352
					c2.313,0,4.207,1.886,4.207,4.208v8.895H41.223z M48.219,33.031l-1.992,1.992l-1.992-1.992l-4.805-4.805l1.992-1.992
					l4.805,4.805l8.121-8.121l1.992,1.992L48.219,33.031z"/>
			</g>
			<g id="Layer_8" display="inline">
				<g>
					<path fill="#FFFFFF" d="M35,8.281C20.246,8.281,8.281,20.246,8.281,35S20.246,61.719,35,61.719S61.719,49.754,61.719,35
						S49.754,8.281,35,8.281z M44.926,17.07c3.023,0,5.473,2.449,5.473,5.473s-2.438,5.473-5.473,5.473
						c-3.023,0-5.473-2.449-5.473-5.473S41.902,17.07,44.926,17.07z M40.461,36.605c0,3.021-2.449,5.473-5.473,5.473
						s-5.473-2.449-5.473-5.473c0-3.024,2.449-5.479,5.473-5.479S40.461,33.582,40.461,36.605z M25.074,17.07
						c3.023,0,5.473,2.449,5.473,5.473s-2.449,5.473-5.473,5.473c-3.024,0-5.473-2.449-5.473-5.473S22.051,17.07,25.074,17.07z
						 M16.238,35.914v-6.738c0-1.746,1.43-3.188,3.188-3.188h0.27c1.113,1.816,3.105,3.023,5.391,3.023s4.277-1.207,5.391-3.023
						h0.27c1.746,0,3.188,1.43,3.188,3.188v1.289c-2.953,0.504-5.203,3.07-5.203,6.141c0,0.896,0.188,1.734,0.527,2.496h-9.844
						C17.668,39.102,16.238,37.672,16.238,35.914z M43.836,49.742c0,1.746-1.43,3.188-3.188,3.188H29.34
						c-1.746,0-3.188-1.43-3.188-3.188v-6.738c0-1.746,1.43-3.188,3.188-3.188h0.27c1.113,1.813,3.105,3.021,5.391,3.021
						s4.276-1.207,5.392-3.021h0.271c1.746,0,3.188,1.43,3.188,3.188v6.738H43.836z M53.762,35.914c0,1.746-1.43,3.188-3.188,3.188
						h-9.82c0.34-0.762,0.527-1.604,0.527-2.496c0-3.082-2.25-5.637-5.203-6.141v-1.289c0-1.746,1.43-3.188,3.188-3.188h0.271
						c1.111,1.816,3.104,3.023,5.391,3.023s4.277-1.207,5.393-3.023h0.271c1.746,0,3.188,1.43,3.188,3.188v6.738H53.762z"/>
				</g>
			</g>
		</g>
	</g>
</g>
<circle fill="#FFFFFF" cx="35" cy="35" r="26.5"/>
<g>
	<path fill-rule="evenodd" clip-rule="evenodd" d="M17.419,39.03c0.122-0.66,0.206-1.331,0.374-1.979
		c0.538-2.076,1.531-3.946,2.785-5.664c3.007-4.119,6.577-7.691,10.688-10.709c1.821-1.337,3.796-2.393,6.021-2.908
		c2.841-0.657,5.513-0.208,7.957,1.36c0.953,0.612,1.809,1.382,2.679,2.114c0.553,0.466,0.542,1.028,0.028,1.543
		c-1.71,1.715-3.422,3.426-5.136,5.137c-0.476,0.475-0.949,0.485-1.49,0.092c-0.582-0.423-1.164-0.855-1.786-1.212
		c-1.493-0.857-2.977-0.739-4.36,0.245c-0.756,0.538-1.492,1.124-2.147,1.778c-1.771,1.768-3.511,3.567-5.225,5.391
		c-0.473,0.502-0.862,1.102-1.198,1.707c-0.651,1.175-0.562,2.385,0.084,3.531c0.357,0.634,0.801,1.224,1.239,1.809
		c0.474,0.633,0.471,1.072-0.079,1.623c-1.687,1.688-3.374,3.376-5.062,5.063c-0.589,0.589-1.093,0.58-1.673-0.019
		c-1.441-1.49-2.621-3.149-3.226-5.156c-0.19-0.63-0.275-1.292-0.409-1.939c-0.019-0.09-0.042-0.18-0.064-0.269
		C17.419,40.055,17.419,39.542,17.419,39.03z M25.987,41.955c-0.319-0.517-0.676-1.035-0.973-1.585
		c-0.786-1.458-1.027-2.983-0.439-4.573c0.405-1.096,1.048-2.058,1.845-2.897c1.795-1.892,3.596-3.779,5.455-5.607
		c0.774-0.761,1.676-1.401,2.566-2.032c0.768-0.544,1.659-0.83,2.605-0.915c1.419-0.127,2.686,0.314,3.878,1.029
		c0.354,0.213,0.696,0.45,0.96,0.622c1.363-1.363,2.691-2.691,4.039-4.039c-0.415-0.314-0.855-0.678-1.326-0.997
		c-2.216-1.499-4.612-1.952-7.213-1.234c-1.948,0.538-3.672,1.521-5.278,2.709c-3.273,2.424-6.148,5.271-8.729,8.414
		c-1.491,1.815-2.778,3.759-3.534,6.013c-1.169,3.489-0.253,6.487,2.104,9.132C23.297,44.646,24.636,43.306,25.987,41.955z"/>
	<path fill-rule="evenodd" clip-rule="evenodd" d="M53.192,42.943c-0.136,0.729-0.218,1.471-0.415,2.182
		c-0.719,2.598-2.24,4.623-4.496,6.087c-2.034,1.319-4.282,1.853-6.684,1.635c-2.6-0.234-4.84-1.3-6.652-3.183
		c-2.208-2.297-3.216-5.067-2.967-8.241c0.241-3.065,1.616-5.571,4.018-7.496c1.562-1.252,3.355-1.994,5.342-2.212
		c2.657-0.291,5.112,0.31,7.304,1.854c2.231,1.571,3.662,3.701,4.276,6.365c0.122,0.53,0.185,1.073,0.274,1.611
		C53.192,42.012,53.192,42.477,53.192,42.943z M33.842,42.269c0,4.79,3.912,8.702,8.712,8.713c4.786,0.011,8.684-3.873,8.728-8.697
		c0.044-4.767-3.934-8.742-8.73-8.724C37.74,33.578,33.841,37.477,33.842,42.269z"/>
	<path fill-rule="evenodd" clip-rule="evenodd" d="M45.731,30.924c-0.737-0.002-1.337-0.341-1.902-0.771
		c-1.005-0.764-1.017-1.329-0.114-2.197c1.56-1.5,3.069-3.052,4.6-4.583c0.759-0.758,1.196-0.745,1.901,0.054
		c0.412,0.468,0.749,0.979,0.876,1.601c0.169,0.83-0.021,1.617-0.571,2.22c-0.96,1.055-1.979,2.06-3.023,3.034
		C46.977,30.768,46.336,30.925,45.731,30.924z M49.25,25.337c-0.031,0.001-0.062,0.001-0.093,0.002
		c-1.204,1.204-2.409,2.408-3.613,3.612c0.226,0.01,0.5,0.011,0.674-0.12c1.083-0.811,2.036-1.761,2.844-2.847
		C49.188,25.816,49.19,25.556,49.25,25.337z"/>
	<path fill-rule="evenodd" clip-rule="evenodd" d="M25.108,51.122c-0.746-0.028-1.513-0.544-2.155-1.27
		c-0.263-0.297-0.231-0.783,0.009-1.105c0.076-0.103,0.169-0.191,0.26-0.281c1.644-1.646,3.289-3.292,4.934-4.938
		c0.633-0.633,1.147-0.612,1.737,0.063c0.635,0.727,1.107,1.528,0.87,2.53c-0.109,0.461-0.295,0.967-0.606,1.307
		c-0.962,1.053-1.979,2.06-3.021,3.036C26.665,50.906,26.046,51.124,25.108,51.122z M28.921,45.648
		c-1.206,1.203-2.398,2.394-3.603,3.596c0.169-0.066,0.373-0.1,0.517-0.209c1.095-0.836,2.062-1.802,2.896-2.897
		C28.839,45.996,28.868,45.792,28.921,45.648z"/>
	<path fill-rule="evenodd" clip-rule="evenodd" fill="#FFFFFF" d="M25.987,41.955c-1.351,1.351-2.69,2.69-4.039,4.04
		c-2.357-2.645-3.273-5.643-2.104-9.132c0.755-2.254,2.042-4.198,3.534-6.013c2.581-3.143,5.456-5.99,8.729-8.414
		c1.606-1.189,3.33-2.171,5.278-2.709c2.601-0.717,4.997-0.264,7.213,1.234c0.471,0.319,0.911,0.683,1.326,0.997
		c-1.348,1.348-2.676,2.676-4.039,4.039c-0.264-0.171-0.605-0.409-0.96-0.622c-1.192-0.715-2.459-1.156-3.878-1.029
		c-0.946,0.085-1.837,0.371-2.605,0.915c-0.89,0.63-1.792,1.271-2.566,2.032c-1.859,1.828-3.659,3.716-5.455,5.607
		c-0.797,0.839-1.44,1.802-1.845,2.897c-0.587,1.59-0.347,3.115,0.439,4.573C25.311,40.92,25.667,41.438,25.987,41.955z"/>
	<path fill-rule="evenodd" clip-rule="evenodd" fill="#FFFFFF" d="M33.842,42.269c0-4.792,3.898-8.691,8.709-8.708
		c4.797-0.018,8.774,3.958,8.73,8.724c-0.044,4.824-3.941,8.708-8.728,8.697C37.754,50.971,33.842,47.059,33.842,42.269z
		 M42.28,45.499c-0.36-0.122-0.56-0.311-0.636-0.618c-0.05-0.202-0.08-0.412-0.14-0.611c-0.101-0.334-0.33-0.541-0.683-0.555
		c-0.44-0.018-0.883-0.018-1.325,0.001c-0.36,0.014-0.628,0.246-0.63,0.576c-0.007,1.235,0.362,2.319,1.484,2.962
		c0.491,0.281,1.08,0.405,1.637,0.556c0.231,0.062,0.313,0.146,0.296,0.37c-0.015,0.162-0.009,0.327,0,0.488
		c0.021,0.428,0.285,0.704,0.665,0.706c0.383,0.002,0.654-0.274,0.678-0.693c0.006-0.093,0.002-0.187,0.003-0.279
		c0.007-0.648-0.061-0.506,0.512-0.639c2.569-0.599,3.167-2.619,2.739-4.478c-0.253-1.099-1.053-1.763-2.077-2.072
		c-0.929-0.282-1.386-0.754-1.2-1.756c0.055-0.293,0.009-0.607,0.009-0.939c0.406,0.125,0.491,0.422,0.563,0.733
		c0.11,0.474,0.307,0.688,0.728,0.715c0.417,0.027,0.839,0.03,1.256-0.001c0.474-0.035,0.684-0.333,0.627-0.816
		c-0.18-1.545-1.186-2.588-2.814-2.898c-0.227-0.043-0.348-0.094-0.35-0.361c-0.003-0.459-0.276-0.726-0.676-0.721
		c-0.385,0.006-0.648,0.266-0.656,0.706c-0.003,0.247-0.105,0.326-0.321,0.347c-1.599,0.158-2.882,1.527-2.883,3.386
		c-0.001,1.089,0.391,2.019,1.35,2.6c0.481,0.291,1.036,0.457,1.548,0.702c0.121,0.058,0.281,0.202,0.284,0.312
		C42.292,43.962,42.28,44.705,42.28,45.499z"/>
	<path fill-rule="evenodd" clip-rule="evenodd" fill="#FFFFFF" d="M49.25,25.337c-0.06,0.219-0.063,0.479-0.188,0.648
		c-0.808,1.085-1.761,2.036-2.844,2.847c-0.174,0.131-0.448,0.13-0.674,0.12c1.204-1.204,2.409-2.408,3.613-3.612
		C49.188,25.338,49.219,25.338,49.25,25.337z"/>
	<path fill-rule="evenodd" clip-rule="evenodd" fill="#FFFFFF" d="M28.921,45.648c-0.054,0.144-0.082,0.348-0.191,0.489
		c-0.834,1.096-1.801,2.062-2.896,2.897c-0.144,0.109-0.347,0.143-0.517,0.209C26.523,48.042,27.715,46.852,28.921,45.648z"/>
	<path fill-rule="evenodd" clip-rule="evenodd" d="M42.28,45.499c0-0.794,0.012-1.537-0.014-2.279
		c-0.003-0.109-0.163-0.254-0.284-0.312c-0.512-0.245-1.066-0.411-1.548-0.702c-0.959-0.581-1.351-1.511-1.35-2.6
		c0.001-1.858,1.284-3.228,2.883-3.386c0.216-0.021,0.318-0.1,0.321-0.347c0.008-0.44,0.271-0.7,0.656-0.706
		c0.399-0.005,0.673,0.262,0.676,0.721c0.002,0.268,0.123,0.318,0.35,0.361c1.629,0.311,2.635,1.354,2.814,2.898
		c0.057,0.483-0.153,0.781-0.627,0.816c-0.417,0.031-0.839,0.028-1.256,0.001c-0.421-0.026-0.617-0.241-0.728-0.715
		c-0.071-0.312-0.156-0.608-0.563-0.733c0,0.332,0.046,0.646-0.009,0.939c-0.186,1.002,0.271,1.474,1.2,1.756
		c1.024,0.31,1.824,0.974,2.077,2.072c0.428,1.858-0.17,3.879-2.739,4.478c-0.572,0.133-0.505-0.01-0.512,0.639
		c-0.001,0.093,0.003,0.187-0.003,0.279c-0.023,0.419-0.295,0.695-0.678,0.693c-0.38-0.002-0.645-0.278-0.665-0.706
		c-0.009-0.161-0.015-0.326,0-0.488c0.018-0.225-0.064-0.309-0.296-0.37c-0.557-0.15-1.146-0.274-1.637-0.556
		c-1.122-0.643-1.491-1.727-1.484-2.962c0.002-0.33,0.27-0.563,0.63-0.576c0.442-0.019,0.885-0.019,1.325-0.001
		c0.353,0.014,0.582,0.221,0.683,0.555c0.06,0.199,0.09,0.409,0.14,0.611C41.721,45.188,41.92,45.377,42.28,45.499z M43.645,43.526
		c0,0.671,0,1.316,0,1.965c0.45-0.12,0.62-0.354,0.66-0.893C44.344,44.054,44.154,43.735,43.645,43.526z M42.276,40.219
		c0-0.586,0-1.141,0-1.697c-0.436,0.088-0.598,0.299-0.622,0.789C41.631,39.791,41.81,40.065,42.276,40.219z"/>
	<path fill-rule="evenodd" clip-rule="evenodd" fill="#FFFFFF" d="M43.645,43.526c0.51,0.209,0.699,0.527,0.66,1.072
		c-0.04,0.539-0.21,0.772-0.66,0.893C43.645,44.843,43.645,44.197,43.645,43.526z"/>
	<path fill-rule="evenodd" clip-rule="evenodd" fill="#FFFFFF" d="M42.276,40.219c-0.467-0.153-0.646-0.428-0.622-0.908
		c0.024-0.49,0.187-0.701,0.622-0.789C42.276,39.078,42.276,39.633,42.276,40.219z"/>
</g>
</svg>
