<svg width="615.5205479452055" height="196" viewBox="0 0 727.92926 231.66516" version="1.1" id="svg1309" xmlns="http://www.w3.org/2000/svg" xmlns:svg="http://www.w3.org/2000/svg" xmlns:rdf="http://www.w3.org/1999/02/22-rdf-syntax-ns#" xmlns:cc="http://creativecommons.org/ns#" xmlns:dc="http://purl.org/dc/elements/1.1/">
  <title id="title6618">Ciphlex Logo</title>
  <defs id="defs1303">
    <clipPath clipPathUnits="userSpaceOnUse" id="clipPath1569-2-4-3-8-57-6-1-2-0-1-3-4">
      <path d="m 271.059,445.552 h -13.63 -2.671 c -0.641,0 -1.167,-0.525 -1.167,-1.168 v 0 c 0,-0.642 0.526,-1.167 1.167,-1.167 v 0 h 2.762 c 0.108,-1.944 0.286,-4.265 0.388,-5.492 v 0 c 0.333,-2.833 0.836,-5.597 1.512,-8.292 v 0 h -3.154 c -0.644,0 -1.168,-0.525 -1.168,-1.168 v 0 c 0,-0.642 0.524,-1.167 1.168,-1.167 v 0 h 3.788 6.155 9.696 c 0.543,2.749 2.967,4.824 5.877,4.824 v 0 c 3.31,0 5.992,-2.683 5.992,-5.992 v 0 c 0,-3.31 -2.682,-5.992 -5.992,-5.992 v 0 c -2.91,0 -5.334,2.073 -5.877,4.823 v 0 h -15.118 c 0.527,-1.569 1.117,-3.115 1.769,-4.636 v 0 c 0.534,-1.247 1.098,-2.467 1.69,-3.662 v 0 h -9.668 c -0.641,0 -1.168,-0.525 -1.168,-1.168 v 0 c 0,-0.643 0.527,-1.167 1.168,-1.167 v 0 h 10.884 5.417 3.788 22.232 c 0.544,2.749 2.968,4.824 5.878,4.824 v 0 c 3.308,0 5.991,-2.683 5.991,-5.992 v 0 c 0,-3.31 -2.683,-5.993 -5.991,-5.993 v 0 c -2.91,0 -5.334,2.075 -5.878,4.825 v 0 h -19.897 l 10.634,-10.634 h 63.049 c 0.543,2.749 2.967,4.823 5.876,4.823 v 0 c 3.31,0 5.992,-2.682 5.992,-5.991 v 0 c 0,-3.31 -2.682,-5.992 -5.992,-5.992 v 0 c -2.909,0 -5.333,2.074 -5.876,4.824 v 0 H 286.67 l -12.971,12.97 h -6.903 c 2.724,-4.555 5.929,-8.676 9.617,-12.363 v 0 c 5.82,-5.819 12.688,-10.349 20.607,-13.587 v 0 c 7.919,-3.24 16.377,-4.859 25.375,-4.859 v 0 c 6.959,0 13.228,0.718 18.807,2.16 v 0 c 5.579,1.439 10.618,3.418 15.118,5.937 v 0 c 4.499,2.52 8.517,5.52 12.058,8.999 v 0 c 3.539,3.479 6.809,7.258 9.808,11.338 v 0 l -26.276,18.717 c -1.919,-2.279 -3.869,-4.349 -5.848,-6.209 v 0 c -1.98,-1.86 -4.08,-3.479 -6.299,-4.859 v 0 c -2.22,-1.38 -4.68,-2.43 -7.38,-3.15 v 0 c -2.699,-0.72 -5.669,-1.079 -8.908,-1.079 v 0 c -4.439,0 -8.489,0.87 -12.148,2.609 v 0 c -3.659,1.739 -6.808,4.11 -9.448,7.109 v 0 c -2.64,2.999 -4.709,6.569 -6.209,10.709 v 0 c -0.527,1.453 -0.961,2.941 -1.303,4.461 v 0 c -0.422,1.786 -0.896,5.952 -0.936,7.827 v 0 z m -34.525,0 c -0.642,0 -1.167,-0.525 -1.167,-1.168 v 0 c 0,-0.642 0.525,-1.167 1.167,-1.167 v 0 h 13.849 c 0.643,0 1.167,0.525 1.167,1.167 v 0 c 0,0.643 -0.524,1.168 -1.167,1.168 v 0 z m 12.427,-16.119 c -0.643,0 -1.168,-0.525 -1.168,-1.168 v 0 c 0,-0.642 0.525,-1.167 1.168,-1.167 v 0 h 3.804 c 0.643,0 1.167,0.525 1.167,1.167 v 0 c 0,0.643 -0.524,1.168 -1.167,1.168 v 0 z m 30.295,-3.503 c 0,-1.396 1.131,-2.527 2.526,-2.527 v 0 c 1.396,0 2.528,1.131 2.528,2.527 v 0 c 0,1.395 -1.132,2.527 -2.528,2.527 v 0 c -1.395,0 -2.526,-1.132 -2.526,-2.527 m -44.448,-9.467 c -0.641,0 -1.168,-0.525 -1.168,-1.168 v 0 c 0,-0.643 0.527,-1.167 1.168,-1.167 v 0 h 16.301 c 0.642,0 1.168,0.524 1.168,1.167 v 0 c 0,0.643 -0.526,1.168 -1.168,1.168 v 0 z m 65.441,-3.503 c 0,-1.396 1.132,-2.528 2.528,-2.528 v 0 c 1.395,0 2.526,1.132 2.526,2.528 v 0 c 0,1.395 -1.131,2.527 -2.526,2.527 v 0 c -1.396,0 -2.528,-1.132 -2.528,-2.527 m 53.786,-12.97 c 0,-1.396 1.132,-2.528 2.526,-2.528 v 0 c 1.396,0 2.528,1.132 2.528,2.528 v 0 c 0,1.396 -1.132,2.527 -2.528,2.527 v 0 c -1.394,0 -2.526,-1.131 -2.526,-2.527" id="path1567-0-7-8-3-9-1-5-1-2-9-4-3"></path>
    </clipPath>
  </defs>
  <metadata id="metadata1306">
    <rdf:rdf>
      <cc:work rdf:about="">
        <dc:format>image/svg+xml</dc:format>
        <dc:type rdf:resource="http://purl.org/dc/dcmitype/StillImage"></dc:type>
        <dc:title>Ciphlex Logo</dc:title>
      </cc:work>
    </rdf:rdf>
  </metadata>
  <g id="layer1" transform="translate(504.36073,-1343.7578)">
    <g id="g4064">
      <g id="g933-4-0-9-2" transform="matrix(3.5299917,0,0,3.5299917,-259.19283,82.266525)">
        <g id="g1563-8-6-9-2-0-8-75-6-6-6-0-9" style="fill:#3d414a;fill-opacity:1;stroke:#3d414a;stroke-opacity:1" transform="matrix(0.35277777,0,0,-0.35277777,-151.87582,538.65972)">
          <g id="g1565-3-3-5-4-9-1-6-5-2-0-2-8" clip-path="url(#clipPath1569-2-4-3-8-57-6-1-2-0-1-3-4)" style="fill:#3d414a;fill-opacity:1;stroke:#3d414a;stroke-opacity:1">
            <g id="g1571-3-6-9-4-4-8-2-6-0-8-4-4" style="fill:#3d414a;fill-opacity:1;stroke:#3d414a;stroke-opacity:1">
              <g id="g1573-8-6-1-8-4-6-7-9-1-2-0-4" style="fill:#3d414a;fill-opacity:1;stroke:#3d414a;stroke-opacity:1">
                <path d="m 271.059,445.552 h -13.63 -2.671 c -0.641,0 -1.167,-0.525 -1.167,-1.168 v 0 c 0,-0.642 0.526,-1.167 1.167,-1.167 v 0 h 2.762 c 0.108,-1.944 0.286,-4.265 0.388,-5.492 v 0 c 0.333,-2.833 0.836,-5.597 1.512,-8.292 v 0 h -3.154 c -0.644,0 -1.168,-0.525 -1.168,-1.168 v 0 c 0,-0.642 0.524,-1.167 1.168,-1.167 v 0 h 3.788 6.155 9.696 c 0.543,2.749 2.967,4.824 5.877,4.824 v 0 c 3.31,0 5.992,-2.683 5.992,-5.992 v 0 c 0,-3.31 -2.682,-5.992 -5.992,-5.992 v 0 c -2.91,0 -5.334,2.073 -5.877,4.823 v 0 h -15.118 c 0.527,-1.569 1.117,-3.115 1.769,-4.636 v 0 c 0.534,-1.247 1.098,-2.467 1.69,-3.662 v 0 h -9.668 c -0.641,0 -1.168,-0.525 -1.168,-1.168 v 0 c 0,-0.643 0.527,-1.167 1.168,-1.167 v 0 h 10.884 5.417 3.788 22.232 c 0.544,2.749 2.968,4.824 5.878,4.824 v 0 c 3.308,0 5.991,-2.683 5.991,-5.992 v 0 c 0,-3.31 -2.683,-5.993 -5.991,-5.993 v 0 c -2.91,0 -5.334,2.075 -5.878,4.825 v 0 h -19.897 l 10.634,-10.634 h 63.049 c 0.543,2.749 2.967,4.823 5.876,4.823 v 0 c 3.31,0 5.992,-2.682 5.992,-5.991 v 0 c 0,-3.31 -2.682,-5.992 -5.992,-5.992 v 0 c -2.909,0 -5.333,2.074 -5.876,4.824 v 0 H 286.67 l -12.971,12.97 h -6.903 c 2.724,-4.555 5.929,-8.676 9.617,-12.363 v 0 c 5.82,-5.819 12.688,-10.349 20.607,-13.587 v 0 c 7.919,-3.24 16.377,-4.859 25.375,-4.859 v 0 c 6.959,0 13.228,0.718 18.807,2.16 v 0 c 5.579,1.439 10.618,3.418 15.118,5.937 v 0 c 4.499,2.52 8.517,5.52 12.058,8.999 v 0 c 3.539,3.479 6.809,7.258 9.808,11.338 v 0 l -26.276,18.717 c -1.919,-2.279 -3.869,-4.349 -5.848,-6.209 v 0 c -1.98,-1.86 -4.08,-3.479 -6.299,-4.859 v 0 c -2.22,-1.38 -4.68,-2.43 -7.38,-3.15 v 0 c -2.699,-0.72 -5.669,-1.079 -8.908,-1.079 v 0 c -4.439,0 -8.489,0.87 -12.148,2.609 v 0 c -3.659,1.739 -6.808,4.11 -9.448,7.109 v 0 c -2.64,2.999 -4.709,6.569 -6.209,10.709 v 0 c -0.527,1.453 -0.961,2.941 -1.303,4.461 v 0 c -0.422,1.786 -0.896,5.952 -0.936,7.827 v 0 z m -34.525,0 c -0.642,0 -1.167,-0.525 -1.167,-1.168 v 0 c 0,-0.642 0.525,-1.167 1.167,-1.167 v 0 h 13.849 c 0.643,0 1.167,0.525 1.167,1.167 v 0 c 0,0.643 -0.524,1.168 -1.167,1.168 v 0 z m 12.427,-16.119 c -0.643,0 -1.168,-0.525 -1.168,-1.168 v 0 c 0,-0.642 0.525,-1.167 1.168,-1.167 v 0 h 3.804 c 0.643,0 1.167,0.525 1.167,1.167 v 0 c 0,0.643 -0.524,1.168 -1.167,1.168 v 0 z m 30.295,-3.503 c 0,-1.396 1.131,-2.527 2.526,-2.527 v 0 c 1.396,0 2.528,1.131 2.528,2.527 v 0 c 0,1.395 -1.132,2.527 -2.528,2.527 v 0 c -1.395,0 -2.526,-1.132 -2.526,-2.527 m -44.448,-9.467 c -0.641,0 -1.168,-0.525 -1.168,-1.168 v 0 c 0,-0.643 0.527,-1.167 1.168,-1.167 v 0 h 16.301 c 0.642,0 1.168,0.524 1.168,1.167 v 0 c 0,0.643 -0.526,1.168 -1.168,1.168 v 0 z m 65.441,-3.503 c 0,-1.396 1.132,-2.528 2.528,-2.528 v 0 c 1.395,0 2.526,1.132 2.526,2.528 v 0 c 0,1.395 -1.131,2.527 -2.526,2.527 v 0 c -1.396,0 -2.528,-1.132 -2.528,-2.527 m 53.786,-12.97 c 0,-1.396 1.132,-2.528 2.526,-2.528 v 0 c 1.396,0 2.528,1.132 2.528,2.528 v 0 c 0,1.396 -1.132,2.527 -2.528,2.527 v 0 c -1.394,0 -2.526,-1.131 -2.526,-2.527" style="fill:#3d414a;fill-opacity:1;stroke:#3d414a;stroke-opacity:1" id="path1581-0-6-2-7-1-45-0-8-6-5-1-8"></path>
              </g>
            </g>
          </g>
        </g>
        <g id="g1591-4-6-8-7-5-5-8-9-8-4-7-6" style="fill:#ff3e00;fill-opacity:1" transform="matrix(0.35277777,0,0,-0.35277777,-151.87582,538.65972)">
          <path d="m 313.379,511.294 c 2.846,-0.465 5.017,-2.934 5.017,-5.912 v 0 c 0,-3.309 -2.683,-5.992 -5.992,-5.992 v 0 c -2.91,0 -5.335,2.075 -5.878,4.824 v 0 h -5.132 -9.942 -5.135 c -0.643,0 -1.167,-0.525 -1.167,-1.167 v 0 c 0,-0.643 0.524,-1.168 1.167,-1.168 v 0 h 1.088 c -3.82,-2.394 -7.322,-5.159 -10.507,-8.292 v 0 h 68.556 c 0.542,2.75 2.967,4.824 5.877,4.824 v 0 c 3.31,0 5.992,-2.683 5.992,-5.991 v 0 c 0,-3.31 -2.682,-5.993 -5.992,-5.993 v 0 c -2.91,0 -5.334,2.074 -5.877,4.824 v 0 h -58.89 -11.919 -3.156 c -0.643,0 -1.169,-0.525 -1.169,-1.167 v 0 c 0,-0.642 0.526,-1.168 1.169,-1.168 v 0 h 1.113 c -3.228,-3.878 -5.993,-8.131 -8.295,-12.76 v 0 h -1.658 c -0.642,0 -1.168,-0.525 -1.168,-1.168 v 0 c 0,-0.642 0.526,-1.168 1.168,-1.168 v 0 h 0.551 0.665 11.774 3.312 4.81 c 0.543,2.751 2.968,4.824 5.877,4.824 v 0 c 3.309,0 5.992,-2.682 5.992,-5.991 v 0 c 0,-3.309 -2.683,-5.992 -5.992,-5.992 v 0 c -2.909,0 -5.334,2.074 -5.877,4.824 v 0 h -21.566 c -1.403,-3.44 -2.496,-6.984 -3.28,-10.635 v 0 h 3.852 c 0.543,2.751 2.967,4.824 5.878,4.824 v 0 c 3.308,0 5.991,-2.683 5.991,-5.992 v 0 c 0,-3.309 -2.683,-5.991 -5.991,-5.991 v 0 c -2.911,0 -5.336,2.073 -5.878,4.824 v 0 h -1.411 -2.898 -13.402 c -0.643,0 -1.169,-0.526 -1.169,-1.167 v 0 c 0,-0.643 0.526,-1.169 1.169,-1.169 v 0 h 13.033 c -0.379,-2.709 -0.595,-5.473 -0.649,-8.292 v 0 h 35.993 c 0.106,4.178 0.851,8.153 2.237,11.921 v 0 c 1.5,4.08 3.569,7.62 6.209,10.619 v 0 c 2.64,2.999 5.789,5.37 9.448,7.108 v 0 c 3.659,1.74 7.709,2.61 12.148,2.61 v 0 c 6.119,0 11.339,-1.319 15.658,-3.959 v 0 c 4.319,-2.639 8.278,-6.239 11.878,-10.799 v 0 l 26.275,20.337 c -2.759,3.839 -5.909,7.379 -9.448,10.619 v 0 c -3.54,3.239 -7.499,6.029 -11.878,8.368 v 0 c -4.379,2.34 -9.209,4.14 -14.487,5.399 v 0 c -5.28,1.26 -11.159,1.89 -17.638,1.89 v 0 c -3.59,0 -7.076,-0.236 -10.456,-0.706 M 297.29,506.96 c -0.326,-0.134 -0.648,-0.271 -0.969,-0.409 v 0 h 10.205 c 0.351,1.774 1.486,3.268 3.029,4.103 v 0 c -4.264,-0.839 -8.352,-2.07 -12.265,-3.694 m 12.587,-1.578 c 0,-1.395 1.131,-2.527 2.527,-2.527 v 0 c 1.395,0 2.527,1.132 2.527,2.527 v 0 c 0,1.395 -1.132,2.528 -2.527,2.528 v 0 c -1.396,0 -2.527,-1.133 -2.527,-2.528 m -42.514,-1.168 c -0.644,0 -1.167,-0.525 -1.167,-1.167 v 0 c 0,-0.643 0.523,-1.168 1.167,-1.168 v 0 h 15.077 c 0.642,0 1.167,0.525 1.167,1.168 v 0 c 0,0.642 -0.525,1.167 -1.167,1.167 v 0 z m 81.442,-11.794 c 0,-1.396 1.13,-2.528 2.526,-2.528 v 0 c 1.395,0 2.527,1.132 2.527,2.528 v 0 c 0,1.395 -1.132,2.527 -2.527,2.527 v 0 c -1.396,0 -2.526,-1.132 -2.526,-2.527 m -104.472,-1.169 c -0.644,0 -1.168,-0.525 -1.168,-1.167 v 0 c 0,-0.642 0.524,-1.168 1.168,-1.168 v 0 h 23.64 c 0.644,0 1.168,0.526 1.168,1.168 v 0 c 0,0.642 -0.524,1.167 -1.168,1.167 v 0 z m 8.045,-15.095 c -0.643,0 -1.168,-0.525 -1.168,-1.168 v 0 c 0,-0.642 0.525,-1.168 1.168,-1.168 v 0 h 6.983 c 0.643,0 1.168,0.526 1.168,1.168 v 0 c 0,0.643 -0.525,1.168 -1.168,1.168 v 0 z m 34.734,-3.503 c 0,-1.396 1.131,-2.527 2.526,-2.527 v 0 c 1.396,0 2.527,1.131 2.527,2.527 v 0 c 0,1.395 -1.131,2.527 -2.527,2.527 v 0 c -1.395,0 -2.526,-1.132 -2.526,-2.527 m -20.995,-12.971 c 0,-1.395 1.132,-2.526 2.528,-2.526 v 0 c 1.395,0 2.527,1.131 2.527,2.526 v 0 c 0,1.396 -1.132,2.528 -2.527,2.528 v 0 c -1.396,0 -2.528,-1.132 -2.528,-2.528 m -25.65,-1.167 c -0.642,0 -1.167,-0.526 -1.167,-1.167 v 0 c 0,-0.643 0.525,-1.169 1.167,-1.169 v 0 h 1.089 c 0.642,0 1.168,0.526 1.168,1.169 v 0 c 0,0.641 -0.526,1.167 -1.168,1.167 v 0 z" style="fill:#ff3e00;fill-opacity:1;stroke:none" id="path1601-4-0-0-2-2-6-1-8-1-4-9-8"></path>
        </g>
      </g>
      <text xml:space="preserve" style="font-style:normal;font-variant:normal;font-weight:normal;font-stretch:normal;font-size:194.028px;line-height:1.25;font-family:URWAlcuinTExtBol;-inkscape-font-specification:'URWAlcuinTExtBol, Normal';font-variant-ligatures:normal;font-variant-caps:normal;font-variant-numeric:normal;font-variant-east-asian:normal;fill:#3d414a;fill-opacity:1;stroke:#008080;stroke-width:2;stroke-miterlimit:4;stroke-dasharray:none;stroke-opacity:1" x="-353.32431" y="1394.0068" id="text2282-3-7-5-3-8-3-3-7-7-7" transform="scale(0.9265073,1.0793223)"><tspan id="tspan1150-3-1-6-1-3-0-4-6-6-8" x="-353.32431" y="1394.0068" style="font-style:normal;font-variant:normal;font-weight:normal;font-stretch:normal;font-size:194.028px;font-family:URWAlcuinTExtBol;-inkscape-font-specification:'URWAlcuinTExtBol, Normal';font-variant-ligatures:normal;font-variant-caps:normal;font-variant-numeric:normal;font-variant-east-asian:normal;stroke:#008080;stroke-width:2;stroke-dasharray:none">iphlex</tspan></text>
    </g>
  </g>
</svg>